<svg t="1588990789462" class="icon" viewBox="0 0 1024 1024" version="1.1" xmlns="http://www.w3.org/2000/svg" p-id="10059" width="200" height="200"><path d="M853.333333 546.133333c47.0528 0 85.333333-38.280533 85.333334-85.333333s-38.280533-85.333333-85.333334-85.333333-85.333333 38.280533-85.333333 85.333333 38.280533 85.333333 85.333333 85.333333z m0-136.533333c28.228267 0 51.2 22.971733 51.2 51.2s-22.971733 51.2-51.2 51.2-51.2-22.971733-51.2-51.2 22.971733-51.2 51.2-51.2zM716.8 733.866667H307.2a17.066667 17.066667 0 1 0 0 34.133333h409.6a17.066667 17.066667 0 1 0 0-34.133333zM716.8 819.2H307.2a17.066667 17.066667 0 1 0 0 34.133333h409.6a17.066667 17.066667 0 1 0 0-34.133333z" fill="" p-id="10060"></path><path d="M870.4 290.133333V0H153.6v290.133333H0v580.266667h102.4v51.2h51.2v102.4h716.8v-102.4h51.2v-51.2h102.4V290.133333h-153.6zM187.733333 34.133333h648.533334v256H187.733333V34.133333zM153.6 324.266667h836.266667v273.066666H34.133333V324.266667h119.466667zM136.533333 887.466667v-119.466667a17.066667 17.066667 0 1 0-34.133333 0v68.266667H34.133333V631.466667h119.466667v256H136.533333z m699.733334 102.4H187.733333V631.466667h648.533334v358.4z m85.333333-153.6v-68.266667a17.066667 17.066667 0 1 0-34.133333 0v119.466667h-17.066667V631.466667h119.466667v204.8h-68.266667z" fill="" p-id="10061"></path></svg>